<?xml version="1.0" encoding="utf-8"?>
<!-- Generator: Adobe Illustrator 25.2.0, SVG Export Plug-In . SVG Version: 6.00 Build 0)  -->
<svg version="1.1" id="Layer_1" xmlns="http://www.w3.org/2000/svg" xmlns:xlink="http://www.w3.org/1999/xlink" x="0px" y="0px"
	 viewBox="0 0 167.7 84.3" style="enable-background:new 0 0 167.7 84.3;" xml:space="preserve">
<style type="text/css">
	.st0{fill:none;stroke:#000000;stroke-miterlimit:10;}
</style>
<line class="st0" x1="83.8" y1="0.5" x2="83.8" y2="9.6"/>
<path class="st0" d="M158.1,83.8h9.1c0-46-37.3-83.3-83.3-83.3S0.5,37.8,0.5,83.8h9.1"/>
<g>
	<line class="st0" x1="69.4" y1="1.8" x2="70.9" y2="10.7"/>
	<line class="st0" x1="157" y1="70.9" x2="165.9" y2="69.4"/>
</g>
<g>
	<line class="st0" x1="55.3" y1="5.5" x2="58.4" y2="14"/>
	<line class="st0" x1="153.6" y1="58.4" x2="162.1" y2="55.3"/>
</g>
<g>
	<line class="st0" x1="42.2" y1="11.7" x2="46.7" y2="19.5"/>
	<line class="st0" x1="148.2" y1="46.7" x2="156" y2="42.2"/>
</g>
<g>
	<line class="st0" x1="30.3" y1="20" x2="36.1" y2="26.9"/>
	<line class="st0" x1="140.7" y1="36.1" x2="147.7" y2="30.3"/>
</g>
<g>
	<line class="st0" x1="20" y1="30.3" x2="26.9" y2="36.1"/>
	<line class="st0" x1="131.6" y1="26.9" x2="137.4" y2="20"/>
</g>
<g>
	<line class="st0" x1="11.7" y1="42.2" x2="19.5" y2="46.7"/>
	<line class="st0" x1="121" y1="19.5" x2="125.5" y2="11.7"/>
</g>
<g>
	<line class="st0" x1="5.5" y1="55.3" x2="14" y2="58.4"/>
	<line class="st0" x1="109.2" y1="14" x2="112.3" y2="5.5"/>
</g>
<g>
	<line class="st0" x1="1.8" y1="69.4" x2="10.7" y2="70.9"/>
	<line class="st0" x1="96.7" y1="10.7" x2="98.3" y2="1.8"/>
</g>
</svg>
