<?xml version="1.0" encoding="utf-8"?>
<!-- Generator: Adobe Illustrator 24.3.0, SVG Export Plug-In . SVG Version: 6.00 Build 0)  -->
<svg version="1.1" id="Layer_1" xmlns="http://www.w3.org/2000/svg" xmlnsXlink="http://www.w3.org/1999/xlink" x="0px" y="0px"
	 viewBox="0 0 202 177.9" style="enable-background:new 0 0 202 177.9;" xmlSpace="preserve">
<g>
	<path d="M186.9,49.9c0-0.2,0.1-0.5,0.1-0.7c0-8.1-6.9-14.8-15.3-14.8c-0.9,0-1.8,0.1-2.6,0.3c-0.8-7.1-6.9-12.7-14.5-12.7
		c-2.2,0-4.3,0.5-6.2,1.4c-1.2-6.6-7.2-11.6-14.3-11.6c-2.6,0-5.1,0.7-7.2,1.9C125,8.6,120,4.5,114,4.3c-4.6-0.2-8,0.9-9.9,2.6
		C101.8,2.8,97.4,0,92.2,0C87,0,81.6,2.3,78,6.1c-3.2,3.4-5.9,9-6.8,14.1c0,0,5.3,0.5,5.3,0.5c0.1,0,0.1,0,0.2,0c0.1,0,0.2,0,0.3,0
		c1.8,0.1,3.6,0.3,5.4,0.5c0.5,0.1,0.9,0.1,1.4,0.2c8,1,15.4,2.7,22.3,4.7c3.7,1.1,7.3,2.4,10.7,3.8c0.7,0.3,1.3,0.5,2,0.8
		c0.3,0.1,0.5,0.2,0.8,0.3c29.7,12.7,47.2,33.5,55.1,45.2c0.7,0.9,1.2,1.8,1.8,2.7c0.5,0.8,1,1.6,1.4,2.3c1.2,2,1.8,3.3,2,3.6l0.5,1
		c0,0,0,14.4,0,14.5v24.3c0,6.7-2.7,10.3-8.3,11.4l-97.9,17.6l0,0l0,0c-0.4-0.2-0.8-0.4-1.2-0.7c0,0-0.1,0-0.1-0.1
		c-0.8-0.4-1.6-0.8-2.3-1.2c-0.1,0-0.2-0.1-0.2-0.1c-0.8-0.4-1.6-0.8-2.3-1.2c-0.1,0-0.1-0.1-0.2-0.1c-0.8-0.4-1.6-0.8-2.5-1.2
		c0,0,0,0,0,0c-6-2.8-12.4-5.2-18.9-7.2c0,0,0,0-0.1,0c-0.9-0.3-1.9-0.6-2.8-0.8c0,0,0,0,0,0c-6.6-1.9-13.5-3.4-20.6-4.5
		c0,0,0,0,0,0l0.1,10.1c18.7,3.1,36,9.4,50.9,18.2l14.2-2.7l86.1-15.5c10.9-2.2,17.2-10.2,17.2-22.1V93c0-0.1,0.1-0.2,0.1-0.3
		c0-4.6,1.3-9.3,3.4-13.4c2.5-5,7.4-8.6,7.4-14.7C202,56.6,195.2,50,186.9,49.9z"/>
	<path d="M166.4,127.8c2.4-0.4,4.3-2.7,4.3-5.1V88c-0.6-1.1-1.6-2.8-3.1-5c-1-1.4-2.1-3.1-3.5-4.9c-0.1-0.2-0.3-0.4-0.4-0.6
		c-3.3-4.4-7.8-9.6-13.5-14.9C135.7,49.1,113.6,35,82.3,31c-4.5-0.6-9.1-0.9-13.6-1.4L22.4,85.9l0.2,40.4c19.3,2.8,37.6,8.6,54,17.3
		L166.4,127.8z"/>
</g>
</svg>
