<?xml version="1.0" encoding="utf-8"?>
<!-- Generator: Adobe Illustrator 24.3.0, SVG Export Plug-In . SVG Version: 6.00 Build 0)  -->
<svg version="1.1" id="Layer_1" xmlns="http://www.w3.org/2000/svg" xmlns:xlink="http://www.w3.org/1999/xlink" x="0px" y="0px"
	 viewBox="0 0 202 177.9" style="enable-background:new 0 0 202 177.9;" xml:space="preserve">
<style type="text/css">
	.st0{fill:#010101;}
</style>
<path class="st0" d="M167.5,83c-1-1.4-2.1-3.1-3.5-4.9c-0.1-0.2-0.3-0.4-0.4-0.6c-3.3-4.4-7.8-9.6-13.5-14.9
	C135.7,49.1,113.6,35,82.3,31c-4.5-0.6-9.1-0.9-13.6-1.4L0,113.2v43.9l166.4-29.3c2.4-0.4,4.3-2.7,4.3-5.1V88
	C170.1,86.9,169,85.2,167.5,83z M186.9,49.9c0-0.2,0.1-0.5,0.1-0.7c0-8.1-6.9-14.8-15.3-14.8c-0.9,0-1.8,0.1-2.6,0.3
	c-0.8-7.1-6.9-12.7-14.5-12.7c-2.2,0-4.3,0.5-6.2,1.4c-1.2-6.6-7.2-11.6-14.3-11.6c-2.6,0-5.1,0.7-7.2,1.9C125,8.6,120,4.5,114,4.3
	c-4.6-0.2-8,0.9-9.9,2.6C101.8,2.8,97.4,0,92.2,0C87,0,81.6,2.3,78,6.1c-3.2,3.4-5.9,9-6.8,14.1c0,0,5.3,0.5,5.3,0.5
	c0.1,0,0.1,0,0.2,0c0.1,0,0.2,0,0.3,0c1.8,0.1,3.6,0.3,5.4,0.5c0.5,0.1,0.9,0.1,1.4,0.2c8,1,15.4,2.7,22.3,4.7
	c3.7,1.1,7.3,2.4,10.7,3.8c0.7,0.3,1.3,0.5,2,0.8c0.3,0.1,0.5,0.2,0.8,0.3c29.7,12.7,47.2,33.5,55.1,45.2c0.7,0.9,1.2,1.8,1.8,2.7
	c0.5,0.8,1,1.6,1.4,2.3c1.2,2,1.8,3.3,2,3.6l0.5,1c0,0,0,14.4,0,14.5v24.3c0,6.7-2.7,10.3-8.3,11.4L0,166.9v11l174-31.3
	c10.9-2.2,17.2-10.2,17.2-22.1V93c0-0.1,0.1-0.2,0.1-0.3c0-4.6,1.3-9.3,3.4-13.4c2.5-5,7.4-8.6,7.4-14.7
	C202,56.6,195.2,50,186.9,49.9z"/>
</svg>
