<?xml version="1.0" encoding="utf-8"?>
<!-- Generator: Adobe Illustrator 25.1.0, SVG Export Plug-In . SVG Version: 6.00 Build 0)  -->
<svg version="1.1" id="Capa_1" xmlns="http://www.w3.org/2000/svg" xmlnsXlink="http://www.w3.org/1999/xlink" x="0px" y="0px"
	 viewBox="0 0 390 512" style="enable-background:new 0 0 390 512;" xmlSpace="preserve">
<path d="M390,75c0-8.3-6.7-15-15-15H270V15c0-8.3-6.7-15-15-15H135c-8.3,0-15,6.7-15,15v45H15C6.7,60,0,66.7,0,75v45h390V75z
	 M150,30h90v30h-90V30z"/>
<path d="M390,150H0v30h30v317c0,8.3,6.7,15,15,15h300c8.3,0,15-6.7,15-15V180h30V150z M120,452c0,8.3-6.7,15-15,15s-15-6.7-15-15
	V210c0-8.3,6.7-15,15-15s15,6.7,15,15V452z M210,452c0,8.3-6.7,15-15,15c-8.3,0-15-6.7-15-15V210c0-8.3,6.7-15,15-15s15,6.7,15,15
	V452z M300,452c0,8.3-6.7,15-15,15c-8.3,0-15-6.7-15-15V210c0-8.3,6.7-15,15-15c8.3,0,15,6.7,15,15V452z"/>
</svg>
